HIERARCHY
ROOT ROOT
{
	OFFSET 0.000000 56.020000 -5.659234
	CHANNELS 6 Xposition Yposition Zposition Xrotation Yrotation Zrotation 
	JOINT C_spine0001_bind_JNT
	{
		OFFSET 0.000000 1.618999 0.000000
		CHANNELS 3 Xrotation Yrotation Zrotation
		JOINT C_spine0002_bind_JNT
		{
			OFFSET 0.000000 4.942001 0.000001
			CHANNELS 3 Xrotation Yrotation Zrotation
			JOINT C_spine0003_bind_JNT
			{
				OFFSET 0.000000 4.942001 -0.000000
				CHANNELS 3 Xrotation Yrotation Zrotation
				JOINT C_neck0001_bind_JNT
				{
					OFFSET 0.000000 17.026009 -0.000000
					CHANNELS 3 Xrotation Yrotation Zrotation
					JOINT C_neck0002_bind_JNT
					{
						OFFSET 0.000000 3.249985 0.000000
						CHANNELS 3 Xrotation Yrotation Zrotation
						JOINT C_head_bind_JNT
						{
							OFFSET 0.000000 5.278008 0.000000
							CHANNELS 3 Xrotation Yrotation Zrotation
							End Site
							{
								OFFSET 0.000000 0.000000 0.000000
							}
						}
					}
				}
				JOINT L_clavicle_bind_JNT
				{
					OFFSET 4.590000 12.067001 0.834000
					CHANNELS 3 Xrotation Yrotation Zrotation
					JOINT L_armUpper0001_bind_JNT
					{
						OFFSET 7.812635 0.512001 -3.452945
						CHANNELS 3 Xrotation Yrotation Zrotation
						JOINT L_armLower0001_bind_JNT
						{
							OFFSET 15.265892 -6.552116 -0.058157
							CHANNELS 3 Xrotation Yrotation Zrotation
							JOINT L_hand0001_bind_JNT
							{
								OFFSET 14.747667 -6.369995 5.049225
								CHANNELS 3 Xrotation Yrotation Zrotation
								End Site
								{
									OFFSET 0.000000 0.000000 0.000000
								}
							}
						}
					}
				}
				JOINT R_clavicle_bind_JNT
				{
					OFFSET -4.590000 12.067001 0.834000
					CHANNELS 3 Xrotation Yrotation Zrotation
					JOINT R_armUpper0001_bind_JNT
					{
						OFFSET -7.812635 0.512001 -3.452945
						CHANNELS 3 Xrotation Yrotation Zrotation
						JOINT R_armLower0001_bind_JNT
						{
							OFFSET -15.265890 -6.552124 -0.058160
							CHANNELS 3 Xrotation Yrotation Zrotation
							JOINT R_hand0001_bind_JNT
							{
								OFFSET -14.746784 -6.369629 5.048937
								CHANNELS 3 Xrotation Yrotation Zrotation
								End Site
								{
									OFFSET 0.000000 0.000000 0.000000
								}
							}
						}
					}
				}
			}
		}
	}
	JOINT C_pelvis0001_bind_JNT
	{
		OFFSET -0.000000 0.000000 0.000000
		CHANNELS 3 Xrotation Yrotation Zrotation
		JOINT L_legUpper0001_bind_JNT
		{
			OFFSET 6.599999 -6.027000 0.539000
			CHANNELS 3 Xrotation Yrotation Zrotation
			JOINT L_legLower0001_bind_JNT
			{
				OFFSET -0.140713 -19.187443 0.040261
				CHANNELS 3 Xrotation Yrotation Zrotation
				JOINT L_foot0001_bind_JNT
				{
					OFFSET -0.132215 -18.028637 -1.138370
					CHANNELS 3 Xrotation Yrotation Zrotation
					JOINT L_foot0002_bind_JNT
					{
						OFFSET 0.007014 -4.693133 9.886524
						CHANNELS 3 Xrotation Yrotation Zrotation
						End Site
						{
							OFFSET 0.000000 0.000000 0.000000
						}
					}
				}
			}
		}
		JOINT R_legUpper0001_bind_JNT
		{
			OFFSET -6.599999 -6.027000 0.539000
			CHANNELS 3 Xrotation Yrotation Zrotation
			JOINT R_legLower0001_bind_JNT
			{
				OFFSET 0.140710 -19.187164 0.040550
				CHANNELS 3 Xrotation Yrotation Zrotation
				JOINT R_foot0001_bind_JNT
				{
					OFFSET 0.132215 -18.028633 -1.138362
					CHANNELS 3 Xrotation Yrotation Zrotation
					JOINT R_foot0002_bind_JNT
					{
						OFFSET -0.007014 -4.693128 9.886505
						CHANNELS 3 Xrotation Yrotation Zrotation
						End Site
						{
							OFFSET 0.000000 0.000000 0.000000
						}
					}
				}
			}
		}
	}
}
MOTION
Frames: 5
Frame Time: 0.033333
0.000000 49.159668 0.000000 0.031544 7.001050 0.005909 0.488575 -6.577348 0.637746 -4.372282 0.433355 -0.142812 4.836637 0.232098 -0.301956 14.894750 1.176560 -2.104981 -0.024991 -0.281147 -0.385357 -8.517467 2.340870 -3.847080 12.345513 0.835882 8.180185 -22.014015 -7.862286 -70.569244 12.361292 13.992208 -0.438008 -5.968960 -13.875519 -30.657576 9.749650 -0.476787 -8.122466 -21.036203 8.770660 67.505287 11.071407 -16.682896 0.828661 -8.205044 13.258007 32.341419 0.534037 -7.146823 2.579464 2.155547 -1.650636 -8.628031 1.113142 2.825934 -0.807178 -3.776132 4.674420 3.249304 -1.939988 0.382794 1.703481 -11.813807 -13.475960 -11.266581 4.975064 0.010941 0.540087 3.824555 13.360651 4.706172 -0.764364 1.777907 0.418790 
0.027724 49.198467 0.093127 0.028712 6.629685 -0.024353 0.187340 -6.534165 0.990924 -4.155722 0.368147 -0.160801 4.833669 0.318055 -0.526883 14.703377 0.936475 -2.163315 -0.045675 0.021575 -0.294314 -9.205584 2.564664 -3.775955 12.157497 1.184951 7.733362 -21.661062 -8.426470 -70.393364 11.984056 13.482058 0.125804 -5.927001 -13.399602 -31.496405 9.760016 -0.222316 -7.944073 -20.413639 9.511663 67.000252 10.434786 -16.560324 0.779814 -9.605156 12.582458 32.475475 0.156352 -7.233374 2.981765 2.226723 -1.243719 -9.059781 1.647225 2.772159 -0.915162 -3.687779 4.985303 3.676702 -1.899356 0.698287 1.570201 -12.086508 -13.770351 -11.534178 5.602876 0.232302 0.067274 3.791169 13.775707 4.770624 -0.877973 1.991581 0.363455 
-0.056615 49.222763 0.092470 0.014614 6.989283 -0.025044 0.279454 -7.054595 0.875456 -4.165734 0.379713 -0.148492 5.068778 0.400301 -0.507242 14.655442 0.940089 -2.139471 -0.096276 -0.028521 -0.250700 -9.002165 2.545995 -3.888854 11.877845 1.015323 7.943953 -21.412172 -8.220376 -70.249153 12.285098 13.121038 -0.185711 -6.730742 -13.533792 -31.195753 9.570760 -0.218320 -8.018355 -20.185453 9.381363 67.380791 10.294375 -16.388395 0.871368 -9.828220 12.547601 32.193104 0.245835 -7.640298 3.042226 2.443310 -1.395021 -9.107241 1.669577 2.655050 -0.878769 -4.127367 5.500074 3.924820 -1.793705 0.579349 1.350532 -12.261031 -13.709942 -11.499409 5.199056 0.689402 -0.054870 3.973819 13.614687 4.832587 -0.658482 1.822770 0.492422 
-0.126998 49.226376 0.119581 0.020248 6.702722 -0.015042 0.420507 -6.837686 0.870777 -4.173763 0.372656 -0.171005 4.957700 0.314498 -0.416029 14.658581 0.941400 -2.117502 -0.021667 0.045338 -0.406624 -9.054859 2.510665 -3.846074 11.853842 1.094564 7.984911 -21.288870 -8.315201 -70.310463 12.241364 13.044132 -0.326988 -6.699076 -13.448561 -31.149944 9.617755 -0.157835 -8.048721 -20.235575 9.335721 67.448273 10.393276 -16.427588 0.895254 -9.746269 12.408437 32.020405 0.298606 -7.392727 2.928530 2.369698 -1.317141 -8.831979 1.637730 2.755947 -0.847259 -4.047422 5.455793 3.772624 -1.873610 0.546447 1.313290 -12.080003 -13.500892 -11.204718 5.162724 0.850790 -0.191701 3.747385 13.163781 4.923905 -0.550228 1.941278 0.424328 
-0.126734 49.252846 0.113025 0.017338 6.594460 -0.016965 0.361507 -6.808020 0.870529 -4.176851 0.308363 -0.111983 4.953911 0.321264 -0.469160 14.803987 0.927844 -2.146522 -0.089713 0.047575 -0.263523 -9.037180 2.601595 -3.945294 11.843831 1.059596 7.983468 -21.175879 -8.304952 -70.313568 12.268530 12.887738 -0.373981 -6.704938 -13.342438 -31.167217 9.637364 -0.205650 -7.982510 -20.123203 9.424443 67.625053 10.323869 -16.448935 0.829932 -9.720167 12.442638 31.996828 0.243336 -7.393642 2.888119 2.338354 -1.137991 -8.879612 1.690403 2.667080 -0.905519 -4.183988 5.574825 3.990739 -1.769656 0.560681 1.226550 -11.636730 -13.541280 -11.086964 4.838480 0.977627 -0.114437 3.694168 13.007344 4.880845 -0.527797 1.934450 0.401205 
